<?xml version="1.0" encoding="UTF-8" standalone="no"?>
<!DOCTYPE svg PUBLIC "-//W3C//DTD SVG 1.1//EN" "http://www.w3.org/Graphics/SVG/1.1/DTD/svg11.dtd">
<svg width="100%" height="100%" viewBox="0 0 40 40" version="1.1" xmlns="http://www.w3.org/2000/svg" xmlns:xlink="http://www.w3.org/1999/xlink" xml:space="preserve" xmlns:serif="http://www.serif.com/" style="fill-rule:evenodd;clip-rule:evenodd;stroke-linejoin:round;stroke-miterlimit:1.5;">
    <g transform="matrix(1,0,0,1,-4.74421,4.85363)">
        <g transform="matrix(17,0,0,17,45.8547,35.1464)">
        </g>
        <text x="3.64px" y="35.146px" style="font-family:'DejaVuSansMono-Bold', 'DejaVu Sans Mono', monospace;font-weight:700;font-size:17px;fill:rgb(136,136,136);">R<tspan x="14.3px 24.96px 35.62px " y="35.146px 35.146px 35.146px ">IFE</tspan></text>
    </g>
    <g transform="matrix(1.68993,0,0,1,-9.46761,-0.0402803)">
        <path d="M6.851,1.929L28.012,1.929" style="fill:none;stroke:rgb(190,192,197);stroke-width:2.88px;"/>
    </g>
    <g transform="matrix(1.11266,0,0,1,-5.50339,6.67175)">
        <path d="M6.851,1.929L28.012,1.929" style="fill:none;stroke:rgb(190,192,197);stroke-width:3.78px;"/>
    </g>
    <g transform="matrix(1.68993,0,0,1,-9.45853,13.3838)">
        <path d="M6.851,1.929L28.012,1.929" style="fill:none;stroke:rgb(190,192,197);stroke-width:2.88px;"/>
    </g>
    <g transform="matrix(1.11308,0,0,1,-5.51541,20.0958)">
        <path d="M6.851,1.929L28.012,1.929" style="fill:none;stroke:rgb(190,192,197);stroke-width:3.78px;"/>
    </g>
</svg>
