<?xml version="1.0" encoding="UTF-8" standalone="no"?>
<!DOCTYPE svg PUBLIC "-//W3C//DTD SVG 1.1//EN" "http://www.w3.org/Graphics/SVG/1.1/DTD/svg11.dtd">
<svg width="100%" height="100%" viewBox="0 0 40 40" version="1.1" xmlns="http://www.w3.org/2000/svg" xmlns:xlink="http://www.w3.org/1999/xlink" xml:space="preserve" xmlns:serif="http://www.serif.com/" style="fill-rule:evenodd;clip-rule:evenodd;stroke-linejoin:round;stroke-miterlimit:2;">
    <g transform="matrix(0.229885,0,0,0.229885,2.00549,-50.4902)">
        <g transform="matrix(3.44972,0,0,6.12854,-35.2558,214.181)">
            <path d="M23.174,4.749L10.723,9.437L23.174,14.08L23.174,16.761L7.691,10.638L7.691,8.206L23.174,2.083L23.174,4.749Z" style="fill:rgb(189,128,92);fill-rule:nonzero;"/>
        </g>
        <g transform="matrix(-3.44972,-6.62931e-16,6.11675e-16,-6.12854,191.808,329.667)">
            <path d="M23.174,4.749L10.723,9.437L23.174,14.08L23.174,16.761L7.691,10.638L7.691,8.206L23.174,2.083L23.174,4.749Z" style="fill:rgb(189,128,92);fill-rule:nonzero;"/>
        </g>
        <g transform="matrix(4.35,0,0,4.35,-29.3612,240.746)">
            <g transform="matrix(17,0,0,17,45.8547,35.1464)">
            </g>
            <text x="3.64px" y="35.146px" style="font-family:'DejaVuSansMono-Bold', 'DejaVu Sans Mono', monospace;font-weight:700;font-size:17px;fill:rgb(136,136,136);">R<tspan x="14.3px 24.96px 35.62px " y="35.146px 35.146px 35.146px ">IFE</tspan></text>
        </g>
        <g transform="matrix(4.98776,0,0,7.48616,-13.8602,171.341)">
            <path d="M20.065,6.451L23.404,6.451L16.88,20.421L13.541,20.421L20.065,6.451Z" style="fill:rgb(189,128,92);fill-rule:nonzero;"/>
        </g>
    </g>
</svg>
