<svg width="100%" height="100%" viewBox="0 0 40 40" version="1.1" xmlns="http://www.w3.org/2000/svg" xmlns:xlink="http://www.w3.org/1999/xlink" xml:space="preserve" style="fill-rule:evenodd;clip-rule:evenodd;stroke-linejoin:round;stroke-miterlimit:2;">
    <g transform="matrix(0.229885,0,0,0.229885,26.942,40.888)">
        <path d="M0,-177.863C-22.327,-165.203 -31.224,-147.109 -33.667,-121.924C-35.472,-103.319 -19.786,-81.716 -18.917,-69.492C-17.976,-56.264 -25.574,-46.231 -40.538,-43.565C-49.795,-41.916 -61.195,-42.933 -75.398,-54.902C-75.143,-34.181 -66.067,-15.01 -45.39,-7.627C-24.016,0 -2.936,-4.216 11.569,-16.952C31.395,-33.375 36.223,-58.239 21.071,-83.661C4.775,-111.019 -9.883,-131.924 0,-177.863" style="fill:rgb(250,144,82);fill-rule:nonzero;"/>
    </g>
    <g transform="matrix(0.229885,0,0,0.229885,2.00549,-44.0018)">
        <path d="M44.994,232.96C44.997,232.924 44.994,232.96 44.994,232.96C44.183,234.216 43.369,235.469 42.549,236.719C38.65,242.663 34.554,248.414 30.298,254.105C24.635,261.679 17.301,271.274 18.166,281.079C18.912,285.907 21.788,289.979 25.697,292.809C28.69,294.683 32.079,295.771 35.595,296.205C39.625,296.703 43.567,296.449 47.427,295.105C53.294,292.204 55.672,289.13 56.528,284.655C56.808,283.575 56.716,282.043 56.716,282.043C56.675,281.603 56.644,281.271 56.592,280.832C56.486,279.939 56.337,279.051 56.155,278.171C55.951,277.184 55.705,276.207 55.428,275.239C55.378,275.065 54.996,273.816 55.189,274.419C55.035,273.937 54.872,273.457 54.704,272.98C54.064,271.16 53.337,269.372 52.569,267.602C52.569,267.602 48.706,258.742 47.333,254.328C45.184,247.428 44.263,240.168 44.994,232.96Z" style="fill:rgb(35,146,255);fill-rule:nonzero;"/>
    </g>
</svg>